<?xml version="1.0" encoding="UTF-8"?><svg id="Layer_1" xmlns="http://www.w3.org/2000/svg" viewBox="0 0 641 512.9"><defs><style>.cls-1,.cls-2{fill:#008eaa;}.cls-3{fill:#fff;}.cls-2{stroke:#fff;stroke-miterlimit:10;}</style></defs><path class="cls-2" d="M306.8,432.6c0-6.4-5-16.1-16.1-16.1-5.5,0-10.9,2.9-13.9,8.1l-36.6,64c-1.4,2.5-2.1,5.2-2.1,7.8,.1,6,4.8,16,16.2,16,5.5,0,10.9-2.9,13.9-8.1l36.6-64c1.4-2.4,2-5.1,2-7.7Zm-47.6-257.7s9-72.6,60.9-91.4c0,0,12.9-8.3,12.9-15.8,0-9.4-8-16-15.9-16-1.1,0-2.2,.1-3.3,.4l-68.8,13.6L205.7,7.3c-2.9-4.5-8-6.8-13.2-6.8s-10.2,2.2-13.2,6.8l-39.2,58.5-69-13.8c-1.1-.2-2.2-.3-3.2-.3-4.2,0-8.2,1.7-11.1,4.7-3.1,3.1-4.8,7.2-4.8,11.5,0,1,.1,2,.3,3l13.8,69L7.6,179c-4.4,3-7.1,7.9-7.1,13.3s2.8,10.4,7.1,13.4l58.4,39-13.8,69c-.2,1.1-.3,2.1-.3,3.1,0,9,7.4,16.2,15.9,16.2,1.1,0,2.1-.1,3.2-.3l68.9-13.8,39.1,58.5c3.2,4.6,8.2,7.1,13.3,7.1,3.1,0,6.2-.9,8.9-2.8,4.6-3.1,7.2-8.2,7.2-13.4,0-3-1.4-5.6-2.7-8.8-57.8-137.9,52.5-184.4,53.5-184.6Zm239.6,257.7c0-6.4-5-16.1-16.1-16.1-5.5,0-10.9,2.9-13.9,8.1l-36.6,64c-1.4,2.5-2.1,5.2-2.1,7.8,.1,6,4.8,16,16.2,16,5.5,0,10.9-2.9,13.9-8.1l36.6-64c1.4-2.4,2-5.1,2-7.7Zm77-234.9c-6.2-39-38.8-69.2-79.3-69.2-8.6,0-17,1.4-25.2,4.2-19.7-22.8-48.2-36.2-78.8-36.2-56.5,0-102.8,45.2-104,101.6-37.8,13.3-64,49.3-64,90.4,0,52.9,43.1,96,96,96h224c52.9,0,96-43.1,96-96,0-41.2-26.6-77.6-64.7-90.8Zm-31.3,154.8h-221.7c-11.8,0-66.3-9.7-66.3-64,0-30.6,21.8-56.1,51.1-62.8l.5-.1c7.3-1.5,12.5-7.9,12.5-15.2,0-2.3-.3-.9-.9-12.2,2.1-38.7,33.8-69.7,72.8-69.7,24.2,0,46.8,12.2,60.1,32.8l.3,.4c3,4.6,7.9,7.1,13,7.1,2.5,0,5.1-.6,7.5-1.9l.4-.2c7.4-4,15-5.8,22.5-5.8,25.5,0,48.3,21.2,48.4,46.2,0,0-.1,3.4-.1,3.5,0,7.4,5.3,13.8,12.5,15.2,29.9,5.9,51.4,32.3,51.4,62.7,0,35.2-28.7,64-64,64Zm50.3,80.1c0-6.4-5-16.1-16.1-16.1-5.5,0-10.9,2.9-13.9,8.1l-36.6,64c-1.4,2.5-2.1,5.2-2.1,7.8,.1,6,4.8,16,16.2,16,5.5,0,10.9-2.9,13.9-8.1l36.6-64c1.4-2.4,2-5.1,2-7.7Zm-192,0c0-6.4-5-16.1-16.1-16.1-5.5,0-10.9,2.9-13.9,8.1l-36.6,64c-1.4,2.5-2.1,5.2-2.1,7.8,.1,6,4.8,16,16.2,16,5.5,0,10.9-2.9,13.9-8.1l36.6-64c1.4-2.4,2-5.1,2-7.7Z"/><path class="cls-3" d="M193.4,276.1c1.1-11.4,3.8-22.4,7.8-32.8,2.7-10.5,32-57.9,57.5-67,1.6-8.6,3.9-16.6,6.8-24.4-14.2-25.6-41.5-43.4-73-43.4-46.2,0-83.8,37.6-83.8,83.8-.1,46.2,37.6,83.9,83.8,83.9"/><path class="cls-1" d="M199.3,250.1c7-24.7,22.9-54.6,55.1-71.9-8.9-26.5-35.4-43-63.5-43.6-31.8-.6-57.7,25.9-57.7,57.7-.1,31.8,25.9,57.8,57.7,57.8"/></svg>