<?xml version="1.0" encoding="UTF-8"?><svg id="Layer_1" xmlns="http://www.w3.org/2000/svg" viewBox="0 0 640 512"><defs><style>.cls-1{fill:#5d295f;}</style></defs><path class="cls-1" d="M436,17.6c-14.4-12.5-30.7-17.6-46.5-17.6-22.9,0-44.4,10.8-58.4,25.3l-12,11.7-10.2-11.6C295.2,10.9,273.2,0,250.2,0c-15.7,0-31.7,5.1-47.1,17.6-34.4,30.6-36.3,85.7-4.8,118.7l108.9,114.2c7,7.4,18.4,7.4,25.5,0l108.1-114.2c32.5-33,30.6-88.1-4.8-118.7ZM220.4,248.7c-14-19.1-49.1-31.4-74.4-3.9-15.6,16.9-15.9,42.9-2.5,61.4l28.6,39.2c6.5,8.9-6.5,19.1-13.6,10.8l-61.9-73.4-.7-169.1c0-26-21.2-49.2-47.2-49.6C21.9,63.6,0,85.2,0,111.1l.7,202.3c0,10.9,3.7,21.5,10.5,30l106.9,133.7c4.4,5.5,7.5,13.7,9.2,21.7,1.5,7.2,8.2,12.2,15.6,12.2,10.2,0,17.8-9.4,15.6-19.4-2.7-12.7-7.9-25.2-15.4-34.5L36.1,323.4c-2.3-1.8-3.5-5.5-3.5-9.1l-.6-203.2c0-21,32-21.6,32,.8l.7,181.6,64.5,77.5c36.8,44.2,96.6-2.6,70.7-42.4-.1-.2-.4-.5-.5-.8l-30.6-41.4c-4.6-6.5-4.1-16.8,3.5-22.2,7-5.1,17.1-3.9,22.5,3.5l42.2,58.3c12.6,16.9,19.5,37.4,19.5,58v112c0,8.8,7.1,16,15.9,16s16.1-7.2,16.1-15.9v-112c0-27.7-9-54.6-25.6-76.9l-42.5-58.5ZM639.2,111.1c0-26.7-21.8-48.4-48.7-48-26,.4-47.2,23.7-47.2,49.7l.7,168.9-61.9,73.4c-7.1,8.4-20.1-1.8-13.6-10.8l28.6-38.3c13.4-18.5,13.1-44.6-2.5-61.4-25.5-27.4-60.5-15.2-74.4,4l-42.4,58.4c-16.6,22.1-25.6,49.1-25.6,76.9v112c0,8.8,7.2,15.9,15.9,15.9s16-7.2,16-15.9l.1-112c0-20.6,6.7-41.1,19.5-58l42.3-58.4c5.4-7.4,15.4-8.7,22.4-3.5,7.9,5.6,8.4,15.8,3.5,22.2l-30.5,42.2c-.2,.2-.5,.5-.5,.8-26.1,39.7,33.8,86.7,70.7,42.4l64.5-77.5-.7-181.6c0-22.4,32-21.7,32-.8l.7,202.3c0,3.6-1.2,7.2-3.5,10l-107,133.9c-7.4,9.2-12.6,21.8-15.4,34.5-2.2,10,5.4,19.4,15.6,19.4,7.4,0,14.1-5,15.6-12.2,1.7-8,4.7-16.1,9.2-21.6l106.9-133.7c6.8-8.5,10.5-19,10.5-30l-.8-203.2Z"/></svg>