<?xml version="1.0" encoding="UTF-8"?><svg id="Layer_2" xmlns="http://www.w3.org/2000/svg" viewBox="0 0 512 448"><defs><style>.cls-1{fill:#78be21;}</style></defs><g id="Layer_1-2"><path class="cls-1" d="M80,64H16c-8.84,0-16,7.2-16,16,0,114.7,93.31,208,208,208h48v144c0,8.84,7.16,16,16,16s16-7.16,16-16v-160c0-114.7-93.3-208-208-208Zm128,192c-91.7,0-167.17-70.4-175.28-160h47.28c91.66,0,167.2,70.41,175.3,160h-47.3ZM496,0h-64c-66.75,0-129.9,32.41-168.1,86.66-6,7.14-14.56,20.84-8.6,27.42,19.95,22.03,46.41,77.48,48.73,94.57,1.13,8.33,7.69,14.69,15.94,14.69,.44,0,.89-.03,1.33-.06,106.9-8.78,190.7-99.88,190.7-207.28,0-8.84-7.2-16-16-16Z"/></g></svg>