<?xml version="1.0" encoding="utf-8"?>
<!-- Generator: Adobe Illustrator 27.7.0, SVG Export Plug-In . SVG Version: 6.00 Build 0)  -->
<svg version="1.1" id="Layer_1" xmlns="http://www.w3.org/2000/svg" xmlns:xlink="http://www.w3.org/1999/xlink" x="0px" y="0px"
	 viewBox="0 0 382.3 36.7" style="enable-background:new 0 0 382.3 36.7;" xml:space="preserve">
<style type="text/css">
	.st0{fill:#79BF43;}
	.st1{fill:#FFFFFF;}
	.st2{fill:#FFFFFF;stroke:#FFFFFF;stroke-width:2;stroke-miterlimit:10;}
</style>
<path class="st0" d="M69.5,1.2c-4.8,0-9.1,1.9-12.2,5c3.1,3.1,5.1,7.5,5.1,12.2s-1.9,9.1-5.1,12.2c3.1,3.1,7.4,5,12.2,5
	c9.5,0,17.3-7.7,17.3-17.3S79.1,1.2,69.5,1.2z"/>
<path class="st1" d="M32.2,7C29,3.4,24.4,1.2,19.3,1.2C9.7,1.2,2,8.9,2,18.4s7.7,17.3,17.3,17.3c5.1,0,9.8-2.3,12.9-5.8
	c-2.7-3-4.4-7-4.4-11.4S29.5,10.1,32.2,7z"/>
<path class="st1" d="M32.2,7c-2.7,3-4.4,7-4.4,11.4s1.7,8.4,4.4,11.4c2.7-3,4.4-7,4.4-11.4S34.9,10.1,32.2,7z"/>
<path class="st1" d="M56.4,7c-3.2-3.6-7.8-5.8-12.9-5.8c-9.5,0-17.3,7.7-17.3,17.3s7.7,17.3,17.3,17.3c5.1,0,9.8-2.3,12.9-5.8
	c-2.7-3-4.4-7-4.4-11.4S53.7,10.1,56.4,7z"/>
<path class="st1" d="M56.4,7c-2.7,3-4.4,7-4.4,11.4s1.7,8.4,4.4,11.4c2.7-3,4.4-7,4.4-11.4S59.1,10.1,56.4,7z"/>
<rect x="92.5" y="3.1" class="st2" width="12.5" height="13.4"/>
<rect x="109.7" y="3.1" class="st2" width="12.5" height="13.4"/>
<rect x="126.6" y="3.1" class="st2" width="12.5" height="13.4"/>
<rect x="92.5" y="20.3" class="st2" width="12.5" height="13.4"/>
<rect x="109.7" y="20.3" class="st2" width="12.5" height="13.4"/>
<rect x="126.6" y="20.3" class="st2" width="12.5" height="13.4"/>
<rect x="143.9" y="3.1" class="st2" width="12.5" height="13.4"/>
<rect x="161.1" y="3.1" class="st2" width="12.5" height="13.4"/>
<rect x="178" y="3.1" class="st2" width="12.5" height="13.4"/>
<rect x="143.9" y="20.3" class="st2" width="12.5" height="13.4"/>
<rect x="161.1" y="20.3" class="st2" width="12.5" height="13.4"/>
<rect x="178" y="20.3" class="st2" width="12.5" height="13.4"/>
<rect x="195.4" y="3.1" class="st2" width="12.5" height="13.4"/>
<rect x="212.6" y="3.1" class="st2" width="12.5" height="13.4"/>
<rect x="229.5" y="3.1" class="st2" width="12.5" height="13.4"/>
<rect x="212.6" y="20.3" class="st2" width="12.5" height="13.4"/>
<rect x="229.5" y="20.3" class="st2" width="12.5" height="13.4"/>
<rect x="264" y="3.1" class="st2" width="12.5" height="13.4"/>
<rect x="280.9" y="3.1" class="st2" width="12.5" height="13.4"/>
<rect x="246.8" y="20.3" class="st2" width="12.5" height="13.4"/>
<rect x="264" y="20.3" class="st2" width="12.5" height="13.4"/>
<rect x="280.9" y="20.3" class="st2" width="12.5" height="13.4"/>
<rect x="297.5" y="3.1" class="st2" width="12.5" height="13.4"/>
<rect x="314.6" y="3.1" class="st2" width="12.5" height="13.4"/>
<rect x="331.6" y="3.1" class="st2" width="12.5" height="13.4"/>
<rect x="348" y="3.1" class="st2" width="12.5" height="13.4"/>
<rect x="365.2" y="3.1" class="st2" width="12.5" height="13.4"/>
</svg>
